<svg width="457" height="136" viewBox="0 0 457 136" fill="none" xmlns="http://www.w3.org/2000/svg">
<path d="M293.981 55.6292C293.981 50.9015 295.143 47.2244 297.466 44.5979C299.881 41.9714 302.762 40.6582 306.107 40.6582C308.523 40.6582 310.567 39.5025 312.24 40.343V15.2862C312.24 10.9788 313.447 7.35419 315.863 4.41251C318.279 1.47084 321.624 0 325.899 0C329.987 0 333.193 1.52337 335.516 4.57011C337.839 7.51179 339 11.1889 339 15.6014V121.817C339 125.809 337.792 129.171 335.376 131.903C332.96 134.634 329.801 136 325.899 136C321.903 136 318.604 134.634 316.003 131.903C313.494 129.171 312.24 125.809 312.24 121.817V71.073C310.567 72.0185 308.523 70.9154 306.107 70.9154C302.762 70.9154 299.881 69.5496 297.466 66.8181C295.143 64.0865 293.981 60.3569 293.981 55.6292Z" fill="black"/>
<path d="M250.217 42.0765C246.128 42.0765 242.737 40.9208 240.042 38.6095C237.347 36.1931 236 32.3584 236 27.1055C236 21.8525 237.347 18.0703 240.042 15.759C242.737 13.3426 246.128 12.1344 250.217 12.1344H288.127C292.216 12.1344 295.607 13.3426 298.302 15.759C300.996 18.0703 302.344 21.8525 302.344 27.1055C302.344 32.2534 300.996 36.0355 298.302 38.4519C295.607 40.8683 292.216 42.0765 288.127 42.0765H281.019C280.183 47.0143 279.3 51.0591 278.371 54.2109L277.116 58.9386C282.134 59.4639 286.594 61.355 290.497 64.6118C294.492 67.8687 297.651 71.966 299.974 76.9038C302.297 81.8416 303.505 87.1472 303.598 92.8204C303.691 99.229 302.483 104.324 299.974 108.107C297.465 111.784 294.028 113.622 289.66 113.622C285.107 113.622 281.484 111.994 278.789 108.737C276.187 105.48 274.886 101.33 274.886 96.2874C274.886 91.3496 275.304 87.7774 275.304 83.0498C275.304 77.3766 273.585 67.0282 272.935 69.6547C271.913 73.8571 270.891 77.6918 269.869 81.1588C268.94 84.6257 267.917 88.0402 266.802 91.4021C265.78 94.6589 264.479 98.231 262.9 102.118C261.227 106.426 258.811 109.315 255.652 110.786C252.586 112.151 249.241 112.151 245.617 110.786C241.529 109.315 238.834 106.846 237.533 103.379C236.232 99.8069 236.093 95.6045 237.115 90.7717C238.137 86.4643 239.67 81.9992 241.714 77.3766C243.852 72.6489 245.664 68.2889 247.15 64.2966C248.823 60.0942 250.217 56.207 251.332 52.635C252.539 49.063 253.654 45.5435 254.677 42.0765H250.217Z" fill="black"/>
<path d="M293.981 55.6292C293.981 50.9015 295.143 47.2244 297.466 44.5979C299.881 41.9714 302.762 40.6582 306.107 40.6582C308.523 40.6582 310.567 39.5025 312.24 40.343V15.2862C312.24 10.9788 313.447 7.35419 315.863 4.41251C318.279 1.47084 321.624 0 325.899 0C329.987 0 333.193 1.52337 335.516 4.57011C337.839 7.51179 339 11.1889 339 15.6014V121.817C339 125.809 337.792 129.171 335.376 131.903C332.96 134.634 329.801 136 325.899 136C321.903 136 318.604 134.634 316.003 131.903C313.494 129.171 312.24 125.809 312.24 121.817V71.073C310.567 72.0185 308.523 70.9154 306.107 70.9154C302.762 70.9154 299.881 69.5496 297.466 66.8181C295.143 64.0865 293.981 60.3569 293.981 55.6292Z" fill="black"/>
<path d="M250.217 42.0765C246.128 42.0765 242.737 40.9208 240.042 38.6095C237.347 36.1931 236 32.3584 236 27.1055C236 21.8525 237.347 18.0703 240.042 15.759C242.737 13.3426 246.128 12.1344 250.217 12.1344H288.127C292.216 12.1344 295.607 13.3426 298.302 15.759C300.996 18.0703 302.344 21.8525 302.344 27.1055C302.344 32.2534 300.996 36.0355 298.302 38.4519C295.607 40.8683 292.216 42.0765 288.127 42.0765H281.019C280.183 47.0143 279.3 51.0591 278.371 54.2109L277.116 58.9386C282.134 59.4639 286.594 61.355 290.497 64.6118C294.492 67.8687 297.651 71.966 299.974 76.9038C302.297 81.8416 303.505 87.1472 303.598 92.8204C303.691 99.229 302.483 104.324 299.974 108.107C297.465 111.784 294.028 113.622 289.66 113.622C285.107 113.622 281.484 111.994 278.789 108.737C276.187 105.48 274.886 101.33 274.886 96.2874C274.886 91.3496 275.304 87.7774 275.304 83.0498C275.304 77.3766 273.585 67.0282 272.935 69.6547C271.913 73.8571 270.891 77.6918 269.869 81.1588C268.94 84.6257 267.917 88.0402 266.802 91.4021C265.78 94.6589 264.479 98.231 262.9 102.118C261.227 106.426 258.811 109.315 255.652 110.786C252.586 112.151 249.241 112.151 245.617 110.786C241.529 109.315 238.834 106.846 237.533 103.379C236.232 99.8069 236.093 95.6045 237.115 90.7717C238.137 86.4643 239.67 81.9992 241.714 77.3766C243.852 72.6489 245.664 68.2889 247.15 64.2966C248.823 60.0942 250.217 56.207 251.332 52.635C252.539 49.063 253.654 45.5435 254.677 42.0765H250.217Z" fill="black"/>
<path fill-rule="evenodd" clip-rule="evenodd" d="M4.37359 32.3059C8.00198 25.003 9.21951 23.1656 14.7577 17.65C19.4652 13.4476 25.6499 10.0857 35.2494 10.0857C46.0489 10.0857 54.6793 14.2356 61.1406 22.5353C67.6941 30.73 70.9709 43.5473 70.9709 60.9873C70.9709 72.9641 69.5402 82.7346 66.6788 90.299C63.9097 97.7582 59.9868 103.274 54.9101 106.846C49.8334 110.313 43.926 112.046 37.1878 112.046C31.9265 112.046 26.8498 110.838 21.9577 108.422C17.158 106.005 13.1889 102.276 10.0506 97.2329C7.0046 92.19 -6.97946 55.1564 4.37359 32.3059ZM42.4491 72.6489C40.603 75.1703 37.7416 76.4311 33.8649 76.4311C29.8958 76.4311 26.9883 75.1178 25.1422 72.4913C23.2962 69.8648 22.3731 65.3472 22.3731 58.9386C22.3731 52.1097 23.25 47.4345 25.0038 44.9131C26.8498 42.3917 29.7574 41.1309 33.7264 41.1309C37.5109 41.1309 40.3723 42.3917 42.3107 44.9131C44.249 47.4345 45.2182 52.1097 45.2182 58.9386C45.2182 65.4523 44.2952 70.0224 42.4491 72.6489Z" fill="black"/>
<path fill-rule="evenodd" clip-rule="evenodd" d="M82.6011 4.41251C80.1089 7.35419 78.8628 10.9788 78.8628 15.2862V121.817C78.8628 125.809 80.1551 129.171 82.7395 131.903C85.4164 134.634 88.7393 136 92.7083 136C96.6774 136 99.8618 134.634 102.262 131.903C104.754 129.171 106 125.809 106 121.817V15.6014C106 11.1889 104.8 7.51179 102.4 4.57011C100.093 1.52337 96.862 0 92.7083 0C88.4624 0 85.0933 1.47084 82.6011 4.41251Z" fill="black"/>
<path d="M118 68.3504C118 64.0357 119.109 60.6682 121.327 58.2478C123.634 55.8274 126.429 54.6171 129.712 54.6171L155.132 54.775V51.7758C155.132 47.7768 156.285 44.6198 158.592 42.3046C160.988 39.8842 164.226 38.674 168.308 38.674C172.567 38.674 175.761 39.8316 177.89 42.1468C180.108 44.3567 181.217 47.4611 181.217 51.4601C181.217 52.5124 181.084 53.6174 180.818 54.775H186.275C186.009 51.4075 186.23 50.4077 186.94 48.6187C187.472 47.2771 188.803 44.5739 189.735 42.7782C190.8 40.7262 190.52 41.3482 191.465 39.779C192.796 37.5691 192.796 35.8326 192.796 35.8326C192.796 33.7279 192.264 32.3599 191.199 31.7285C190.134 30.9918 189.957 30.6235 188.005 30.6235H141.024C136.854 30.6235 133.66 29.0976 131.442 26.0457C129.313 22.8887 128.248 19.2055 128.248 14.996C128.248 10.6814 129.313 7.10339 131.442 4.26203C133.66 1.42068 136.854 0 141.024 0H191.066C196.833 0 201.403 1.36806 204.774 4.10418C208.146 6.73506 210.275 11.5233 211.162 18.4688C211.606 21.5206 211.828 25.0986 211.828 29.2028C211.828 33.307 211.606 37.6216 211.162 42.1468C210.807 46.5666 210.098 50.7761 209.033 54.775H216.087C219.192 54.775 221.765 56.0378 223.806 58.5635C225.935 61.0891 227 64.4566 227 68.6661C227 72.7702 225.935 76.1378 223.806 78.7687C221.765 81.3995 219.192 82.715 216.087 82.715L129.313 82.3993C126.207 82.3993 123.545 81.1891 121.327 78.7687C119.109 76.243 118 72.7702 118 68.3504Z" fill="#FD4003"/>
<path d="M139.694 135.754C134.281 136.595 130.244 135.28 127.582 131.807C124.921 128.335 123.545 123.757 123.457 118.074C123.368 113.654 124.654 110.181 127.316 107.656C130.067 105.025 133.749 102.92 138.363 101.342C142.267 100.079 145.416 98.9212 147.812 97.8689C150.208 96.7113 152.914 95.238 155.93 93.449C158.681 91.7652 161.565 90.1341 164.581 88.5555C167.598 86.977 170.659 86.1351 173.764 86.0299C178.733 85.9247 181.969 87.9376 184.678 90.6076C194.127 99.921 201.935 99.921 205.573 99.921C210.275 99.921 213.913 101.552 216.486 104.814C219.148 108.077 220.479 112.339 220.479 117.601C220.479 120.442 219.991 123.231 219.015 125.967C218.127 128.808 216.575 131.123 214.357 132.912C212.227 134.806 209.299 135.754 205.573 135.754C202.29 135.754 199.317 134.912 196.656 133.228C193.994 131.544 191.465 129.597 189.07 127.387C186.763 125.177 184.367 123.336 181.883 121.863C179.398 120.284 176.737 119.653 173.897 119.968C170.969 120.179 168.175 121.021 165.513 122.494C162.94 123.862 160.322 125.441 157.661 127.23C154.999 129.124 152.204 130.86 149.276 132.439C146.348 134.017 143.154 135.122 139.694 135.754Z" fill="#FD4003"/>
<path d="M348 68.3504C348 64.0357 349.109 60.6682 351.327 58.2478C353.634 55.8274 356.429 54.6171 359.712 54.6171L385.132 54.775V51.7758C385.132 47.7768 386.285 44.6198 388.592 42.3046C390.988 39.8842 394.226 38.674 398.308 38.674C402.567 38.674 405.761 39.8316 407.89 42.1468C410.108 44.3567 411.217 47.4611 411.217 51.4601C411.217 52.5124 411.084 53.6174 410.818 54.775H416.275C416.009 51.4075 416.23 50.4077 416.94 48.6187C417.472 47.2771 418.803 44.5739 419.735 42.7782C420.8 40.7262 420.52 41.3482 421.465 39.779C422.796 37.5691 422.796 35.8326 422.796 35.8326C422.796 33.7279 422.264 32.3599 421.199 31.7285C420.134 30.9918 419.957 30.6235 418.005 30.6235H371.024C366.854 30.6235 363.66 29.0976 361.442 26.0457C359.313 22.8887 358.248 19.2055 358.248 14.996C358.248 10.6814 359.313 7.10339 361.442 4.26203C363.66 1.42068 366.854 0 371.024 0H421.066C426.833 0 431.403 1.36806 434.774 4.10418C438.146 6.73506 440.275 11.5233 441.162 18.4688C441.606 21.5206 441.828 25.0986 441.828 29.2028C441.828 33.307 441.606 37.6216 441.162 42.1468C440.807 46.5666 440.098 50.7761 439.033 54.775H446.087C449.192 54.775 451.765 56.0378 453.806 58.5635C455.935 61.0891 457 64.4566 457 68.6661C457 72.7702 455.935 76.1378 453.806 78.7687C451.765 81.3995 449.192 82.715 446.087 82.715L359.313 82.3993C356.207 82.3993 353.545 81.1891 351.327 78.7687C349.109 76.243 348 72.7702 348 68.3504Z" fill="#FD4003"/>
<path d="M369.694 135.754C364.281 136.595 360.244 135.28 357.582 131.807C354.921 128.335 353.545 123.757 353.457 118.074C353.368 113.654 354.654 110.181 357.316 107.656C360.067 105.025 363.749 102.92 368.363 101.342C372.267 100.079 375.416 98.9212 377.812 97.8689C380.208 96.7113 382.914 95.238 385.93 93.449C388.681 91.7652 391.565 90.1341 394.581 88.5555C397.598 86.977 400.659 86.1351 403.764 86.0299C408.733 85.9247 411.969 87.9376 414.678 90.6076C424.127 99.921 431.935 99.921 435.573 99.921C440.275 99.921 443.913 101.552 446.486 104.814C449.148 108.077 450.479 112.339 450.479 117.601C450.479 120.442 449.991 123.231 449.015 125.967C448.127 128.808 446.575 131.123 444.357 132.912C442.227 134.806 439.299 135.754 435.573 135.754C432.29 135.754 429.317 134.912 426.656 133.228C423.994 131.544 421.465 129.597 419.07 127.387C416.763 125.177 414.367 123.336 411.883 121.863C409.398 120.284 406.737 119.653 403.897 119.968C400.969 120.179 398.175 121.021 395.513 122.494C392.94 123.862 390.322 125.441 387.661 127.23C384.999 129.124 382.204 130.86 379.276 132.439C376.348 134.017 373.154 135.122 369.694 135.754Z" fill="#FD4003"/>
</svg>
