<svg width="117" height="128" viewBox="0 0 117 128" fill="none" xmlns="http://www.w3.org/2000/svg">
<path d="M0 113.371V47.5428C0 45.2267 0.519186 43.0324 1.55756 40.96C2.59594 38.8876 4.02675 37.1809 5.85 35.84L49.725 2.92571C52.2844 0.975239 55.2094 0 58.5 0C61.7906 0 64.7156 0.975239 67.275 2.92571L111.15 35.84C112.978 37.1809 114.411 38.8876 115.45 40.96C116.488 43.0324 117.005 45.2267 117 47.5428V113.371C117 117.394 115.567 120.839 112.7 123.706C109.834 126.574 106.392 128.005 102.375 128H80.4375C78.3656 128 76.6301 127.298 75.231 125.893C73.8319 124.489 73.1299 122.753 73.125 120.686V84.1143C73.125 82.0419 72.423 80.306 71.019 78.9065C69.615 77.507 67.8795 76.8049 65.8125 76.8H51.1875C49.1156 76.8 47.3801 77.5022 45.981 78.9065C44.5819 80.3108 43.8799 82.0468 43.875 84.1143V120.686C43.875 122.758 43.173 124.496 41.769 125.901C40.365 127.305 38.6295 128.005 36.5625 128H14.625C10.6031 128 7.16137 126.569 4.29975 123.706C1.43812 120.844 0.004875 117.399 0 113.371Z" fill="black"/>
</svg>
