<svg width="117" height="128" viewBox="0 0 117 128" fill="none" xmlns="http://www.w3.org/2000/svg">
<path d="M14.625 113.371H36.5625V76.8C36.5625 74.7276 37.2645 72.9917 38.6685 71.5922C40.0725 70.1927 41.808 69.4906 43.875 69.4857H73.125C75.1969 69.4857 76.9348 70.1879 78.3388 71.5922C79.7428 72.9966 80.4424 74.7325 80.4375 76.8V113.371H102.375V47.5428L58.5 14.6286L14.625 47.5428V113.371ZM0 113.371V47.5428C0 45.2267 0.519186 43.0324 1.55756 40.96C2.59594 38.8876 4.02675 37.1809 5.85 35.84L49.725 2.92571C52.2844 0.975239 55.2094 0 58.5 0C61.7906 0 64.7156 0.975239 67.275 2.92571L111.15 35.84C112.978 37.1809 114.411 38.8876 115.45 40.96C116.488 43.0324 117.005 45.2267 117 47.5428V113.371C117 117.394 115.567 120.839 112.7 123.706C109.834 126.574 106.392 128.005 102.375 128H73.125C71.0531 128 69.3176 127.298 67.9185 125.893C66.5194 124.489 65.8174 122.753 65.8125 120.686V84.1143H51.1875V120.686C51.1875 122.758 50.4855 124.496 49.0815 125.901C47.6775 127.305 45.942 128.005 43.875 128H14.625C10.6031 128 7.16137 126.569 4.29975 123.706C1.43812 120.844 0.004875 117.399 0 113.371Z" fill="black"/>
</svg>
