<svg width="59" height="33" viewBox="0 0 59 33" fill="none" xmlns="http://www.w3.org/2000/svg">
  <path d="M0 15.9855C0 14.9764 0.267408 14.1888 0.802225 13.6227C1.35843 13.0566 2.0323 12.7736 2.82383 12.7736L8.95283 12.8105V12.1091C8.95283 11.1738 9.23094 10.4355 9.78715 9.89401C10.3647 9.32793 11.1456 9.04489 12.1296 9.04489C13.1565 9.04489 13.9266 9.31563 14.4401 9.85709C14.9749 10.3739 15.2423 11.1 15.2423 12.0352C15.2423 12.2814 15.2102 12.5398 15.146 12.8105H16.4617C16.3975 12.0229 16.451 11.7891 16.6221 11.3707C16.7504 11.057 17.0713 10.4247 17.296 10.0048C17.5527 9.52485 17.4853 9.67032 17.7131 9.30332C18.034 8.78649 18.034 8.38037 18.034 8.38037C18.034 7.88813 17.9057 7.56818 17.649 7.42051C17.3922 7.24822 17.3495 7.16208 16.8788 7.16208H5.5514C4.54594 7.16208 3.77581 6.80521 3.24099 6.09146C2.72757 5.3531 2.47085 4.49168 2.47085 3.50721C2.47085 2.49811 2.72757 1.66131 3.24099 0.996785C3.77581 0.332262 4.54594 0 5.5514 0H17.6169C19.0074 0 20.1091 0.319956 20.922 0.959867C21.735 1.57517 22.2484 2.69501 22.4623 4.3194C22.5693 5.03315 22.6228 5.86995 22.6228 6.82982C22.6228 7.78969 22.5693 8.79878 22.4623 9.85709C22.3767 10.8908 22.2056 11.8753 21.9489 12.8105H23.6496C24.3983 12.8105 25.0187 13.1059 25.5108 13.6966C26.0242 14.2872 26.2809 15.0748 26.2809 16.0593C26.2809 17.0192 26.0242 17.8068 25.5108 18.4221C25.0187 19.0374 24.3983 19.345 23.6496 19.345L2.72757 19.2712C1.97882 19.2712 1.33704 18.9881 0.802225 18.4221C0.267408 17.8314 0 17.0192 0 15.9855Z" fill="black"/>
  <path d="M5.23051 31.7494C3.92556 31.9463 1.98952 31.6387 1.34774 30.8265C0.705958 30.0143 0.374372 28.9437 0.352979 27.6146C0.331586 26.5809 0.64178 25.7687 1.28356 25.178C1.94673 24.5627 3.7972 24.0705 4.90962 23.7013C5.8509 23.406 6.61034 23.1352 7.18794 22.8891C7.76554 22.6184 8.41802 22.2738 9.14537 21.8554C9.80854 21.4616 10.5038 21.0801 11.2312 20.711C11.9585 20.3418 12.6966 20.1449 13.4453 20.1203C14.6433 20.0957 15.3507 20.6838 16.0766 21.1909C18.7721 23.0737 20.2161 23.4429 21.1146 23.7382C21.1241 23.7434 21.1336 23.7486 21.1431 23.7537C22.9536 24.7312 23.9055 24.3666 23.7459 24.5135C24.3876 25.2765 24.7085 26.2733 24.7085 27.5039C24.7085 28.1684 24.5909 28.8206 24.3556 29.4605C24.1416 30.125 23.7673 30.6665 23.2324 31.0849C22.719 31.5279 22.0131 31.7494 21.1146 31.7494C20.7606 31.7494 20.4217 31.7101 20.0977 31.6313C19.6971 31.534 19.3194 31.3764 18.9646 31.1587C18.3228 30.7649 17.7131 30.3096 17.1355 29.7928C16.5793 29.2759 16.0017 28.8452 15.4027 28.5006C14.8037 28.1315 14.1619 27.9838 13.4774 28.0576C12.7714 28.1069 12.0976 28.3038 11.4558 28.6483C10.8354 28.9683 10.2043 29.3375 9.56252 29.7559C8.92074 30.1989 8.24687 30.605 7.54092 30.9741C6.83496 31.3433 6.06482 31.6018 5.23051 31.7494Z" fill="black"/>
  <path d="M21.1431 23.7537C22.9536 24.7312 23.9055 24.3666 23.7459 24.5135C24.3876 25.2765 24.7085 26.2733 24.7085 27.5039C24.7085 28.1684 24.5909 28.8206 24.3556 29.4605C24.1416 30.125 23.7673 30.6665 23.2324 31.0849C22.719 31.5279 22.0131 31.7494 21.1146 31.7494C20.7606 31.7494 20.4217 31.7101 20.0977 31.6313C21.5805 32.0535 24.2727 32.3252 28.2383 31.5648L26.2809 23.9967C23.3592 24.4313 21.6607 24.0249 21.1431 23.7537Z" fill="black"/>
  <path d="M22.1414 15.9855C22.1414 14.9764 22.4088 14.1888 22.9436 13.6227C23.4998 13.0566 24.1737 12.7736 24.9652 12.7736L31.0942 12.8105V12.1091C31.0942 11.1738 31.3723 10.4355 31.9285 9.89401C32.5061 9.32793 33.2869 9.04489 34.271 9.04489C35.2979 9.04489 36.068 9.31563 36.5814 9.85709C37.1162 10.3739 37.3836 11.1 37.3836 12.0352C37.3836 12.2814 37.3515 12.5398 37.2874 12.8105H38.603C38.5388 12.0229 38.5923 11.7891 38.7635 11.3707C38.8918 11.057 39.2127 10.4247 39.4373 10.0048C39.694 9.52485 39.6266 9.67032 39.8545 9.30332C40.1754 8.78649 40.1754 8.38037 40.1754 8.38037C40.1754 7.88813 40.047 7.56818 39.7903 7.42051C39.5336 7.24822 39.4908 7.16208 39.0202 7.16208H27.6928C26.6873 7.16208 25.9172 6.80521 25.3823 6.09146C24.8689 5.3531 24.6122 4.49168 24.6122 3.5072C24.6122 2.49811 24.8689 1.66131 25.3823 0.996785C25.9172 0.332262 26.6873 0 27.6928 0H39.7582C41.1487 0 42.2505 0.319956 43.0634 0.959867C43.8763 1.57517 44.3897 2.69501 44.6037 4.3194C44.7106 5.03315 44.7641 5.86995 44.7641 6.82982C44.7641 7.78968 44.7106 8.79878 44.6037 9.85709C44.5181 10.8908 44.347 11.8753 44.0902 12.8105H45.791C46.5397 12.8105 47.1601 13.1059 47.6521 13.6966C48.1655 14.2872 48.4223 15.0748 48.4223 16.0593C48.4223 17.0192 48.1655 17.8068 47.6521 18.4221C47.1601 19.0373 46.5397 19.345 45.791 19.345L24.8689 19.2712C24.1202 19.2712 23.4784 18.9881 22.9436 18.4221C22.4088 17.8314 22.1414 17.0192 22.1414 15.9855Z" fill="black"/>
  <path d="M27.3719 31.7494C26.0669 31.9463 24.1309 31.6387 23.4891 30.8265C22.8473 30.0143 22.5157 28.9437 22.4943 27.6146C22.4729 26.5809 22.7831 25.7687 23.4249 25.178C24.0881 24.5627 25.9386 24.0705 27.051 23.7013C27.9923 23.406 28.7517 23.1352 29.3293 22.8891C29.9069 22.6184 30.5594 22.2738 31.2867 21.8554C31.9499 21.4616 32.6452 21.0801 33.3725 20.711C34.0999 20.3418 34.8379 20.1449 35.5867 20.1203C36.7846 20.0957 37.5648 20.5664 38.218 21.1909C40.4963 23.3691 42.3788 23.3691 43.2559 23.3691C44.3897 23.3691 46.2295 23.7505 46.8499 24.5135C47.4917 25.2765 47.8126 26.2733 47.8126 27.5039C47.8126 28.1684 47.6949 28.8206 47.4596 29.4605C47.2457 30.125 46.1012 31.1464 45.5663 31.5648C45.0529 32.0078 44.1544 31.7494 43.2559 31.7494C42.4644 31.7494 41.7477 31.5525 41.106 31.1587C40.4642 30.7649 39.8545 30.3096 39.2769 29.7928C38.7207 29.2759 38.1431 28.8452 37.5441 28.5006C36.9451 28.1315 36.3033 27.9838 35.6187 28.0576C34.9128 28.1069 34.2389 28.3038 33.5971 28.6483C32.9767 28.9683 32.3457 29.3375 31.7039 29.7559C31.0621 30.1989 30.3882 30.605 29.6823 30.9741C28.9763 31.3433 28.2062 31.6018 27.3719 31.7494Z" fill="black"/>
  <circle cx="54.8862" cy="27.6195" r="4.11355" fill="#FD4003"/>
</svg>
