<svg xmlns="http://www.w3.org/2000/svg" width="320" height="134" viewBox="0 0 320 134">
<g>
<path d="M 108.75 129.74 C106.99,131.14 100.82,131.59 91.50,131.00 L 83.50 130.50 L 83.24 79.61 C83.05,42.87 83.30,28.35 84.11,27.36 C84.95,26.36 88.23,26.00 96.59,26.00 C109.00,26.00 110.00,26.48 110.00,32.52 L 110.00 35.17 L 114.66 31.07 C120.78,25.68 127.96,23.54 137.28,24.32 C157.18,25.99 168.45,41.41 168.45,67.00 C168.45,82.52 164.73,93.32 156.60,101.46 C150.35,107.70 142.78,110.31 132.50,109.77 C124.01,109.32 119.07,107.45 113.13,102.46 L 110.00 99.82 L 110.00 114.29 C110.00,124.67 109.65,129.03 108.75,129.74 ZM 59.64 107.90 C51.30,110.46 32.69,110.73 24.10,108.42 C16.31,106.32 9.06,102.06 5.92,97.73 C3.07,93.79 0.36,84.85 1.47,83.05 C1.86,82.41 6.74,82.00 13.81,82.00 L 25.50 82.00 L 28.27 85.47 C34.43,93.20 52.00,92.48 52.00,84.50 C52.00,80.68 48.73,78.98 37.52,76.96 C18.91,73.60 11.47,70.72 6.67,65.02 C-0.22,56.83 0.72,41.72 8.62,33.58 C15.20,26.80 26.60,23.03 40.50,23.03 C61.58,23.03 74.69,31.28 77.41,46.26 C78.31,51.19 77.18,51.59 63.53,51.18 C53.38,50.88 52.86,50.76 51.99,48.48 C51.49,47.17 49.74,45.40 48.09,44.55 C44.24,42.56 35.75,42.56 31.89,44.56 C29.36,45.86 28.93,46.62 29.19,49.30 C29.59,53.46 31.60,54.37 48.30,57.96 C68.14,62.22 73.12,64.91 77.10,73.50 C83.28,86.84 74.97,103.22 59.64,107.90 ZM 314.80 106.80 C314.03,107.57 310.19,107.99 304.05,107.97 C289.55,107.92 281.58,104.52 277.15,96.50 C275.80,94.04 275.41,89.36 275.00,70.50 L 274.50 47.50 L 270.51 47.18 C264.48,46.68 264.00,45.87 264.00,36.00 C264.00,26.13 264.48,25.32 270.51,24.82 L 274.50 24.50 L 274.80 16.53 C274.98,11.71 275.57,8.26 276.30,7.80 C278.32,6.51 298.45,6.85 299.80,8.20 C300.53,8.93 301.00,12.47 301.00,17.20 L 301.00 25.00 L 307.30 25.00 C310.87,25.00 314.12,25.52 314.80,26.20 C316.42,27.82 316.42,44.18 314.80,45.80 C314.12,46.48 310.87,47.00 307.30,47.00 L 301.00 47.00 L 301.00 64.94 C301.00,82.35 301.07,82.93 303.22,84.44 C304.46,85.31 307.51,86.00 310.12,86.00 C313.45,86.00 314.96,86.45 315.39,87.58 C316.52,90.51 316.05,105.55 314.80,106.80 ZM 119.50 85.65 C123.47,87.48 131.44,86.79 134.82,84.33 C144.83,77.05 144.34,56.10 134.00,49.17 C131.13,47.24 129.55,46.90 125.21,47.25 C115.54,48.02 110.00,55.13 110.00,66.74 C110.00,76.29 113.26,82.78 119.50,85.65 Z" fill="rgb(18,18,18)"/>
<path d="M 225.14 128.56 C217.24,130.23 216.29,130.23 208.39,128.51 C195.40,125.69 184.65,117.02 178.89,104.73 L 175.50 97.50 L 175.50 36.50 L 179.18 28.79 C185.43,15.71 196.04,7.59 210.36,4.94 C227.56,1.76 246.15,11.33 254.01,27.41 C258.32,36.23 259.00,41.62 259.00,67.19 C259.00,94.13 257.93,100.71 252.10,109.70 C245.19,120.36 237.08,126.03 225.14,128.56 ZM 212.13 67.85 C216.64,69.15 216.92,69.15 221.28,67.94 C225.63,66.73 231.45,61.97 233.55,57.90 C235.38,54.37 235.42,46.93 233.63,42.66 C232.88,40.85 230.29,37.68 227.88,35.61 C223.59,31.91 223.36,31.84 216.50,32.17 C207.61,32.61 203.75,35.12 200.26,42.75 C198.31,47.00 197.91,49.07 198.43,52.29 C199.63,59.77 204.92,65.78 212.13,67.85 Z" fill="rgb(249,65,8)"/>
</g>
</svg>